PathFileType	4	(X/Y/Z)	Walking06.trc	
DataRate	CameraRate	NumFrames	NumMarkers	Units	OrigDataRate	OrigDataStartFrame	OrigNumFrames	
100.00	100.00	20	19	mm	100.00	360	98	
Frame#	Time	RPSI			LPSI			RASI			LASI			RTHI			RKNE			RHFB			RTUB			RSHN			RANK			RLCA			RSTL			RPCA			RCPG			RHEE			RP5M			RP1M			RD5M			RTOE			
		X1	Y1	Z1	X2	Y2	Z2	X3	Y3	Z3	X4	Y4	Z4	X5	Y5	Z5	X6	Y6	Z6	X7	Y7	Z7	X8	Y8	Z8	X9	Y9	Z9	X10	Y10	Z10	X11	Y11	Z11	X12	Y12	Z12	X13	Y13	Z13	X14	Y14	Z14	X15	Y15	Z15	X16	Y16	Z16	X17	Y17	Z17	X18	Y18	Z18	X19	Y19	Z19	

1	0.000	-815.63531	886.26526	-24.13170	-824.77783	900.40460	-115.74141	-614.40649	849.18823	15.99252	-644.29718	838.35284	-223.64622	-595.56055	561.04517	58.17348	-538.51648	431.20422	31.22753	-529.97626	389.77332	31.28937	-474.72003	401.80429	-23.84783	-458.90964	328.74426	-27.52711	-443.93521	63.32376	4.95170	-446.86966	37.22665	-1.04184	-433.90237	42.04527	-64.70816	-475.83640	50.93359	-39.18575	-493.88141	30.88952	-42.25315	-468.87738	12.98248	-43.88545	-348.70007	39.27838	29.39965	-344.08838	94.68438	-45.20601	-317.66751	51.25922	37.90355	-292.18759	84.28899	0.04228 
2	0.010	-799.87091	886.09753	-24.43988	-807.06885	899.40021	-115.50161	-596.88220	850.07202	17.44743	-625.78510	838.14984	-221.91293	-577.00323	560.19116	59.58411	-522.47919	429.42603	31.63822	-514.74261	387.96603	32.05619	-459.62570	399.41241	-24.04212	-444.78204	325.58838	-28.39406	-437.34692	61.82617	4.07747	-442.12881	36.71813	-1.29025	-429.07211	40.72087	-65.38722	-470.22717	51.59566	-39.75170	-489.57971	34.11129	-42.62630	-466.22623	14.85618	-44.05740	-343.91965	31.62316	28.12562	-335.85574	86.85608	-46.69561	-312.64301	41.38651	36.22416	-284.03207	72.38301	-1.54851 
3	0.020	-782.83289	886.14636	-23.61296	-789.48596	898.80219	-115.33788	-579.80109	850.73090	19.05442	-607.15320	838.24286	-219.94568	-559.94708	559.64618	60.75456	-508.54825	428.09351	32.43073	-501.44095	386.82022	33.27964	-444.19424	399.45859	-24.54469	-431.12900	324.41968	-29.25948	-430.89429	62.57455	4.66178	-437.62143	37.09170	-1.22667	-425.79712	40.09067	-65.61300	-465.51819	53.62683	-38.79293	-486.12033	37.75903	-42.34774	-464.26001	16.90384	-43.70832	-340.18900	26.50412	27.07356	-327.39917	79.38807	-48.63625	-308.70193	34.20815	34.55678	-276.69623	62.05358	-2.64924 
4	0.030	-765.40167	886.76025	-22.34938	-772.27423	898.59076	-115.22060	-563.25293	851.47186	20.99051	-588.76770	838.58301	-217.47124	-546.35138	560.11377	62.46934	-495.46338	428.65198	34.08984	-487.68976	388.23926	34.52028	-428.75372	400.16110	-24.60183	-418.55579	325.17877	-30.34386	-427.25650	62.03325	5.22884	-434.79144	36.59786	-1.23716	-424.12955	39.75704	-65.39132	-462.40076	55.04495	-37.69647	-484.11084	40.15827	-40.39165	-463.28555	18.52759	-43.04511	-337.87698	21.60499	26.25384	-324.24298	74.66566	-49.84909	-306.03714	27.92813	32.68119	-273.36307	54.51210	-6.24258 
5	0.040	-748.37817	887.95331	-21.19579	-755.53998	898.44153	-115.16235	-546.78320	852.69403	22.98293	-570.43597	839.18683	-214.34816	-534.98480	561.16333	64.74551	-481.07248	431.12769	36.12803	-472.04840	391.62250	35.85812	-413.95840	400.63904	-24.04710	-407.04239	326.08575	-30.74464	-424.64291	62.11921	5.64504	-432.86563	36.82855	-0.94181	-423.31934	39.27066	-64.98752	-460.16214	56.51951	-37.58731	-482.56512	42.02577	-39.16742	-462.45609	19.84188	-42.22639	-336.78528	17.75271	26.60825	-321.40973	71.09079	-50.24175	-303.45209	22.01472	31.98826	-271.38168	47.51685	-7.78201 
6	0.050	-732.29590	889.70862	-20.62548	-739.31470	898.31793	-115.36032	-530.42493	854.72296	24.72730	-552.16943	839.95117	-210.96727	-523.11414	562.20111	67.59753	-465.51819	434.37540	38.09024	-456.05902	394.84064	37.19688	-400.24426	400.88641	-23.09723	-396.07303	326.25580	-30.74349	-422.03598	62.63726	6.13740	-431.18121	37.25767	-0.54821	-422.94824	38.61598	-64.66148	-457.87872	58.11480	-37.46469	-480.87662	43.91506	-38.54998	-461.51892	21.02336	-41.72472	-336.72812	14.75242	27.95373	-318.62344	67.17407	-50.30398	-301.63937	18.05930	33.41853	-268.85486	41.79010	-7.24058 
7	0.060	-716.24628	891.72174	-20.60437	-723.44800	898.18835	-115.76039	-514.64539	857.41254	26.48498	-535.69830	840.36542	-207.92017	-509.98370	563.10352	69.89807	-449.90689	436.93225	39.76599	-440.70685	397.14343	38.58511	-387.55246	400.77402	-22.02157	-385.69998	325.75385	-29.87155	-420.23676	62.85450	6.32124	-429.99207	37.53709	-0.36148	-422.08267	38.60003	-64.65670	-456.25012	59.32322	-37.35385	-479.59470	45.21655	-38.11140	-460.90643	21.73966	-41.49296	-336.70425	12.98848	28.76778	-316.79303	65.21750	-50.03165	-301.01642	15.95314	34.64001	-266.85434	38.52669	-6.58552 
8	0.070	-700.54248	893.69415	-21.09721	-707.91101	898.08276	-116.38841	-499.74335	860.30054	28.28817	-519.58264	840.93378	-204.86127	-496.35065	563.90485	71.52795	-435.25217	438.45856	41.08073	-426.85373	398.24469	39.86993	-375.99695	400.62784	-20.88264	-376.20996	324.69952	-28.34562	-419.41388	62.90593	6.16014	-429.43042	37.87740	-0.47001	-421.73267	38.64381	-64.80716	-455.56253	59.92454	-37.48422	-479.10300	45.80991	-37.87934	-460.72351	22.05629	-41.28361	-336.62100	12.45436	29.11123	-316.29715	64.02610	-50.53484	-300.75806	15.31688	34.98168	-266.13623	37.15238	-7.21128 
9	0.080	-685.47119	895.61047	-21.88472	-692.75165	897.98297	-117.27142	-485.44028	863.09637	30.12392	-503.65393	841.39545	-201.97900	-483.05951	564.95007	72.65994	-422.39725	438.85748	42.07145	-415.27084	398.16821	40.85618	-365.29782	400.38788	-18.91608	-367.69485	323.57327	-26.52987	-418.76434	62.97624	6.09363	-429.09915	38.05808	-0.53198	-421.48157	38.74507	-64.93304	-454.94897	60.42316	-37.41997	-478.81638	46.27686	-37.72857	-460.66263	22.20934	-41.17751	-336.58127	12.18021	29.28340	-315.92645	63.07199	-51.04214	-300.63235	15.06525	35.12344	-265.63052	36.60971	-8.03430 
10	0.090	-670.97235	897.33191	-22.74794	-678.00751	897.78473	-118.22439	-471.65735	865.58270	31.98540	-488.20645	841.62640	-199.55470	-470.20364	566.19379	74.36224	-412.00098	438.18469	43.16521	-406.58304	397.26865	42.06169	-355.82602	399.64175	-16.45819	-360.24390	322.13031	-24.66713	-418.32074	62.91240	6.11534	-428.95697	38.18105	-0.52980	-421.32410	38.86407	-64.94994	-454.42163	60.91827	-37.34690	-478.65594	46.72913	-37.62548	-460.66409	22.28594	-41.15926	-336.58823	11.92050	29.50008	-315.67941	62.65890	-50.95444	-300.62125	14.76102	35.43525	-265.36496	36.07608	-7.66770 
11	0.100	-656.90967	898.83813	-23.49583	-663.59869	897.51788	-119.00186	-458.17819	867.76184	34.07071	-473.18585	841.54474	-197.43895	-457.40109	567.50879	76.68283	-404.07419	436.86740	44.40931	-400.53094	395.87820	43.51727	-348.19272	397.83636	-15.41772	-353.82794	320.35672	-22.81908	-418.14053	62.76663	6.08133	-428.94864	38.23310	-0.52699	-421.26349	38.95534	-64.95163	-454.15411	61.21121	-37.34066	-478.63687	47.05123	-37.58332	-460.72937	22.31689	-41.14803	-336.67871	11.73837	29.65124	-315.65836	62.34287	-50.92374	-300.63184	14.60502	35.61285	-265.38266	35.82658	-7.54343 
12	0.110	-643.12323	900.06842	-23.96029	-649.42554	897.29877	-119.39722	-444.88007	869.57312	36.34446	-458.51547	841.33417	-195.62830	-445.12643	568.95447	78.49614	-398.17505	435.63391	45.80764	-396.21872	394.61600	44.94068	-341.28711	395.89355	-13.23298	-348.32300	318.41095	-20.95833	-417.99780	62.66733	6.11797	-428.94598	38.28895	-0.50967	-421.25223	39.07616	-64.99995	-453.92920	61.46325	-37.34450	-478.63080	47.32589	-37.52247	-460.83417	22.35682	-41.14318	-336.75940	11.58927	29.73084	-315.66544	62.08566	-50.92142	-300.64755	14.50993	35.71302	-265.39401	35.79966	-7.74455 
13	0.120	-629.51624	901.17548	-24.08995	-635.47229	897.42877	-119.25765	-431.76138	870.98511	38.82723	-444.23492	841.24304	-194.22928	-434.47794	570.67804	79.64780	-393.52280	434.59009	47.13943	-392.83621	393.59528	46.02672	-335.33987	394.08362	-10.99737	-343.49365	316.64755	-19.13595	-417.84067	62.59655	6.13464	-428.96002	38.32948	-0.49103	-421.22870	39.19250	-65.04465	-453.69571	61.69687	-37.29159	-478.53601	47.84166	-37.42171	-460.93515	22.38232	-41.13152	-336.83920	11.40727	29.76235	-315.65671	61.90620	-50.81856	-300.77451	14.60274	35.71381	-265.49585	35.62582	-7.49226 
14	0.130	-616.06897	902.45593	-23.82854	-621.61420	897.95575	-118.60052	-418.92850	872.08887	41.35601	-430.07504	841.62024	-193.18810	-426.35571	571.60797	80.30623	-389.49597	433.89743	48.09286	-389.71259	392.92242	46.65009	-330.04581	392.64554	-9.48198	-339.28058	315.24213	-17.66251	-417.75842	62.58430	6.11889	-429.00980	38.43146	-0.54267	-421.24094	39.25628	-65.09753	-453.48312	61.97942	-37.33171	-478.34869	48.65021	-37.34430	-461.06119	22.34814	-41.17157	-336.92084	11.25920	29.76409	-315.82477	61.52233	-50.89153	-300.91983	14.76852	35.66973	-265.56262	35.59314	-7.45527 
15	0.140	-602.73065	904.12128	-23.24041	-607.88989	899.36438	-117.64793	-406.07986	873.22052	43.98755	-415.88892	842.67163	-192.61142	-419.99472	571.34943	80.71340	-385.19864	433.49301	48.71381	-386.13800	392.68372	46.94639	-324.95251	391.66568	-8.71098	-335.53876	314.29324	-16.99086	-417.71509	62.62828	6.06390	-429.07928	38.52741	-0.59083	-421.26294	39.27035	-65.15906	-453.29642	62.30052	-37.33281	-478.30807	49.03357	-37.43011	-461.17981	22.35764	-41.21125	-337.02307	11.20975	29.81298	-316.05859	61.12115	-50.97712	-300.86722	14.61847	35.80328	-265.68524	35.59372	-7.36066 
16	0.150	-589.38977	906.31274	-22.43767	-594.04999	901.79718	-116.42313	-393.12024	874.43488	46.50601	-401.96262	844.04413	-191.96773	-413.58841	570.84570	81.12228	-380.26318	433.27679	48.90487	-381.99658	392.57687	47.13778	-320.57669	390.79654	-8.36373	-332.27393	313.70844	-16.93417	-417.69028	62.68696	5.99845	-429.13354	38.62781	-0.63914	-421.24832	39.35317	-65.28070	-453.12720	62.62835	-37.34192	-478.30673	49.27766	-37.50721	-461.35217	22.54764	-41.39753	-337.06046	11.09781	29.76440	-315.85257	61.43689	-50.76407	-301.08597	14.93047	35.66806	-265.85138	35.57484	-7.17796 
17	0.160	-575.81598	908.87915	-21.47879	-580.06287	904.98950	-115.25043	-380.30017	875.78967	48.53066	-388.02579	845.76935	-191.18558	-406.68317	570.72772	81.37988	-375.62262	433.64059	48.93365	-377.44272	392.44357	47.19198	-317.44449	389.41092	-8.75220	-329.43698	313.26263	-17.17863	-417.62512	62.76915	5.93613	-429.15854	38.74672	-0.68599	-421.19556	39.47894	-65.38898	-452.91696	63.16007	-37.59760	-478.32388	49.46910	-37.55154	-461.59302	22.99913	-41.76718	-337.08340	11.11988	29.77999	-315.97073	61.24488	-50.79835	-301.15826	14.99363	35.64055	-266.19412	35.33243	-7.13937 
18	0.170	-562.29620	911.64471	-20.49570	-566.05139	908.34564	-114.22319	-367.61014	877.14105	49.95505	-374.15897	847.96918	-190.35687	-400.48660	570.92145	80.82724	-370.45242	433.76480	48.71926	-372.84756	392.21689	47.07723	-313.90109	388.22604	-9.51218	-326.93451	312.59512	-17.88676	-417.54129	62.88828	5.85961	-429.17908	38.85428	-0.75181	-421.20184	39.57712	-65.46143	-452.58749	63.93282	-37.82964	-478.32007	49.71199	-37.60970	-461.67557	23.12698	-41.87925	-337.11081	11.13089	29.76544	-316.29520	60.67858	-51.03320	-301.20557	14.97975	35.62255	-266.73953	34.75546	-7.18054 
19	0.180	-548.68103	914.41748	-19.60862	-552.12555	911.53729	-113.40730	-354.86716	878.58630	51.07016	-360.38577	850.74780	-189.53896	-393.95270	571.53784	80.58241	-365.38379	433.84106	48.50667	-369.06711	391.93097	46.82463	-310.52988	387.09027	-10.48109	-324.55383	311.84796	-18.68649	-417.31680	62.99955	5.69917	-428.71405	38.95184	-1.10969	-421.16931	39.69466	-65.57301	-452.39084	64.34097	-37.88153	-478.29663	49.94921	-37.76066	-461.68387	23.19958	-41.97603	-337.12100	11.13333	29.77110	-316.23172	60.71513	-50.99967	-301.23471	14.98672	35.60733	-266.70139	34.83324	-7.05135 
20	0.190	-535.09802	917.08331	-18.95853	-538.32477	914.53851	-112.88932	-342.05692	880.05554	51.75430	-346.56317	854.09082	-188.65623	-387.03354	572.45325	80.57548	-360.51871	433.73853	48.18260	-364.80872	391.81107	46.35310	-307.44690	386.14011	-11.45328	-322.30804	311.16608	-19.41189	-416.96344	63.05543	5.42457	-428.17535	39.08205	-1.51829	-421.09613	39.83644	-65.68781	-452.26913	64.64658	-37.95707	-478.24301	50.19862	-38.00376	-461.68311	23.31135	-42.12575	-337.13086	11.14092	29.72925	-315.91498	61.13844	-50.79313	-301.25623	15.00835	35.57027	-266.26862	35.34540	-6.82681 
